<svg width="32" height="30" viewBox="0 0 32 30" fill="none" xmlns="http://www.w3.org/2000/svg">
<rect x="0.181885" width="31" height="30" stroke="#8F9078"/>
<path d="M3.41101 10.625H27.9527L25.2402 26.875H6.12351L3.41101 10.625Z" stroke="#4D5C60" stroke-width="2" stroke-linecap="round"/>
<path d="M22.7861 10.625C22.7861 6.48288 19.6054 3.125 15.6819 3.125C11.7584 3.125 8.57776 6.48288 8.57776 10.625" stroke="#4D5C60" stroke-width="2" stroke-linecap="round" stroke-linejoin="round"/>
<path d="M11.1611 17.5C11.8744 17.5 12.4527 16.9404 12.4527 16.25C12.4527 15.5596 11.8744 15 11.1611 15C10.4477 15 9.86938 15.5596 9.86938 16.25C9.86938 16.9404 10.4477 17.5 11.1611 17.5Z" fill="#4D5C60"/>
<path d="M11.8069 20.625C11.8069 20.625 13.0986 22.5 15.6819 22.5C18.2652 22.5 19.5569 20.625 19.5569 20.625" stroke="#4D5C60" stroke-width="2" stroke-linecap="round" stroke-linejoin="round"/>
<path d="M20.2027 17.5C20.916 17.5 21.4943 16.9404 21.4943 16.25C21.4943 15.5596 20.916 15 20.2027 15C19.4893 15 18.911 15.5596 18.911 16.25C18.911 16.9404 19.4893 17.5 20.2027 17.5Z" fill="#4D5C60"/>
</svg>
